<svg width="15" height="16" viewBox="0 0 15 16" fill="none" xmlns="http://www.w3.org/2000/svg">
<path d="M7.50024 1.90604C4.14019 1.90604 1.40649 4.63973 1.40649 7.99979C1.40649 11.3598 4.14019 14.0935 7.50024 14.0935C10.8603 14.0935 13.594 11.3598 13.594 7.99979C13.594 4.63973 10.8603 1.90604 7.50024 1.90604ZM10.6716 5.9575L6.73413 10.645C6.69094 10.6964 6.63719 10.738 6.57654 10.7669C6.51588 10.7957 6.44973 10.8112 6.38257 10.8123H6.37466C6.30896 10.8123 6.24399 10.7984 6.18398 10.7717C6.12397 10.7449 6.07026 10.7059 6.02632 10.657L4.33882 8.78201C4.29596 8.73656 4.26262 8.68299 4.24076 8.62447C4.2189 8.56595 4.20896 8.50364 4.21152 8.44122C4.21409 8.3788 4.2291 8.31753 4.25568 8.26099C4.28227 8.20446 4.31988 8.1538 4.36632 8.11201C4.41276 8.07022 4.46708 8.03814 4.52609 8.01764C4.58511 7.99715 4.64763 7.98866 4.70997 7.99267C4.77231 7.99668 4.83323 8.01311 4.88913 8.041C4.94503 8.06888 4.9948 8.10766 5.0355 8.15506L6.36235 9.62928L9.95386 5.35457C10.0344 5.26143 10.1484 5.20373 10.2712 5.19395C10.3939 5.18417 10.5156 5.22309 10.6099 5.3023C10.7042 5.3815 10.7635 5.49464 10.7751 5.61724C10.7866 5.73985 10.7495 5.86207 10.6716 5.9575V5.9575Z" fill="#68D391"/>
</svg>
