<svg width="11" height="11" viewBox="0 0 11 11" fill="none" xmlns="http://www.w3.org/2000/svg">
<path d="M7.32261 1.85404C7.80566 1.85548 8.26853 2.04802 8.6101 2.38959C8.95168 2.73117 9.14421 3.19403 9.14565 3.67709V7.32279C9.14421 7.80585 8.95168 8.26871 8.6101 8.61028C8.26853 8.95186 7.80566 9.14439 7.32261 9.14583H3.6769C3.19385 9.14439 2.73098 8.95186 2.38941 8.61028C2.04783 8.26871 1.8553 7.80585 1.85386 7.32279V3.67709C1.8553 3.19403 2.04783 2.73117 2.38941 2.38959C2.73098 2.04802 3.19385 1.85548 3.6769 1.85404H7.32261ZM7.32261 1.12494H3.6769C2.27319 1.12494 1.12476 2.27338 1.12476 3.67709V7.32279C1.12476 8.7265 2.27319 9.87494 3.6769 9.87494H7.32261C8.72632 9.87494 9.87475 8.7265 9.87475 7.32279V3.67709C9.87475 2.27338 8.72632 1.12494 7.32261 1.12494Z" fill="#3182CE"/>
<path d="M7.86938 3.677C7.76122 3.677 7.65549 3.64493 7.56556 3.58484C7.47562 3.52475 7.40553 3.43934 7.36414 3.33941C7.32275 3.23948 7.31192 3.12952 7.33302 3.02344C7.35412 2.91735 7.4062 2.81991 7.48269 2.74343C7.55917 2.66695 7.65661 2.61486 7.76269 2.59376C7.86878 2.57266 7.97874 2.58349 8.07867 2.62488C8.17859 2.66627 8.264 2.73637 8.32409 2.8263C8.38419 2.91623 8.41626 3.02197 8.41626 3.13013C8.41641 3.20199 8.40237 3.27317 8.37495 3.33959C8.34752 3.40601 8.30724 3.46636 8.25643 3.51717C8.20562 3.56798 8.14527 3.60826 8.07885 3.63569C8.01243 3.66312 7.94124 3.67716 7.86938 3.677Z" fill="#3182CE"/>
<path d="M5.49976 4.0413C5.7882 4.0413 6.07017 4.12683 6.31 4.28708C6.54983 4.44733 6.73676 4.6751 6.84714 4.94159C6.95752 5.20808 6.9864 5.50131 6.93013 5.78421C6.87386 6.06711 6.73496 6.32698 6.531 6.53094C6.32704 6.7349 6.06718 6.8738 5.78428 6.93007C5.50137 6.98634 5.20814 6.95746 4.94165 6.84708C4.67516 6.7367 4.44739 6.54977 4.28714 6.30994C4.12689 6.0701 4.04136 5.78814 4.04136 5.49969C4.04177 5.11303 4.19556 4.74232 4.46897 4.46891C4.74238 4.19549 5.11309 4.04171 5.49976 4.0413ZM5.49976 3.31219C5.06711 3.31219 4.64418 3.44049 4.28445 3.68085C3.92471 3.92122 3.64434 4.26286 3.47877 4.66257C3.3132 5.06229 3.26988 5.50212 3.35429 5.92645C3.43869 6.35079 3.64703 6.74056 3.95296 7.04649C4.25889 7.35242 4.64866 7.56076 5.073 7.64516C5.49733 7.72957 5.93716 7.68625 6.33688 7.52068C6.73659 7.35511 7.07823 7.07474 7.3186 6.715C7.55896 6.35527 7.68726 5.93234 7.68726 5.49969C7.68726 4.91953 7.45679 4.36313 7.04655 3.9529C6.63632 3.54266 6.07992 3.31219 5.49976 3.31219Z" fill="#3182CE"/>
</svg>
