<svg width="19" height="24" viewBox="0 0 19 24" fill="none" xmlns="http://www.w3.org/2000/svg">
<path d="M16.179 2.53224C15.1418 1.35738 13.2648 0.854065 10.8636 0.854065H3.89505C3.40425 0.854065 2.98714 1.20861 2.90928 1.68829L0.00761646 19.9453C-0.0493888 20.3054 0.231466 20.6307 0.598525 20.6307H4.90033L5.98065 13.8318L5.94728 14.0459C6.02375 13.5662 6.43948 13.2117 6.93028 13.2117H8.97412C12.9909 13.2117 16.1345 11.5933 17.0536 6.91191C17.0814 6.77288 17.1245 6.50592 17.1245 6.50592C17.3858 4.77352 17.123 3.59866 16.179 2.53224Z" fill="white"/>
<path d="M18.2133 7.39301C17.215 12.0021 14.0297 14.4408 8.97432 14.4408H7.14181L5.77368 23.1H8.7463C9.17592 23.1 9.54159 22.79 9.60833 22.3687L9.64309 22.1852L10.3271 17.8875L10.3716 17.6512C10.4384 17.2299 10.804 16.9198 11.2323 16.9198H11.7759C15.2894 16.9198 18.0395 15.5044 18.8432 11.4098C19.1657 9.76637 19.01 8.38851 18.2133 7.39301Z" fill="white"/>
</svg>
