<svg width="12" height="11" viewBox="0 0 12 11" fill="none" xmlns="http://www.w3.org/2000/svg">
<g clip-path="url(#clip0_2611_5311)">
<path d="M10.2225 2.92498C10.2354 2.91741 10.2462 2.90658 10.2537 2.89355C10.2612 2.88053 10.2651 2.86577 10.2651 2.85075C10.2651 2.83574 10.2612 2.82098 10.2537 2.80795C10.2462 2.79493 10.2354 2.78409 10.2225 2.77653L6.94095 0.870003C6.73098 0.748298 6.4926 0.684204 6.24991 0.684204C6.00722 0.684204 5.76883 0.748298 5.55886 0.870003L2.27798 2.77653C2.26501 2.78409 2.25425 2.79493 2.24677 2.80795C2.23929 2.82098 2.23535 2.83574 2.23535 2.85075C2.23535 2.86577 2.23929 2.88053 2.24677 2.89355C2.25425 2.90658 2.26501 2.91741 2.27798 2.92498L6.20704 5.23627C6.22026 5.24406 6.23532 5.24816 6.25066 5.24816C6.266 5.24816 6.28105 5.24406 6.29427 5.23627L10.2225 2.92498Z" fill="#2D3748"/>
<path d="M1.91016 3.50932C1.89705 3.50175 1.88218 3.49778 1.86705 3.4978C1.85192 3.49783 1.83706 3.50185 1.82398 3.50946C1.8109 3.51706 1.80006 3.52799 1.79256 3.54113C1.78505 3.55428 1.78115 3.56917 1.78125 3.5843V7.32021C1.78158 7.50025 1.82903 7.67706 1.91888 7.83306C2.00874 7.98907 2.13787 8.11884 2.29344 8.20945L5.77734 10.2984C5.7904 10.3059 5.80521 10.3099 5.82029 10.3099C5.83537 10.3099 5.85018 10.3059 5.86324 10.2984C5.87631 10.2909 5.88716 10.28 5.8947 10.267C5.90225 10.2539 5.90624 10.2391 5.90625 10.224V5.88957C5.90624 5.8745 5.90226 5.8597 5.89472 5.84665C5.88717 5.8336 5.87633 5.82277 5.86328 5.81523L1.91016 3.50932Z" fill="#2D3748"/>
<path d="M6.59375 5.9046V10.223C6.59377 10.238 6.59775 10.2528 6.6053 10.2659C6.61285 10.279 6.6237 10.2898 6.63676 10.2973C6.64982 10.3049 6.66463 10.3088 6.67971 10.3088C6.69479 10.3088 6.7096 10.3048 6.72266 10.2973L10.2063 8.20837C10.3618 8.11788 10.4909 7.98829 10.5808 7.83249C10.6706 7.67669 10.7182 7.50008 10.7187 7.32021V3.58429C10.7187 3.56923 10.7147 3.55445 10.7071 3.54143C10.6996 3.52841 10.6887 3.5176 10.6756 3.5101C10.6626 3.50259 10.6478 3.49864 10.6327 3.49866C10.6177 3.49867 10.6029 3.50264 10.5898 3.51017L6.63672 5.83048C6.6237 5.838 6.61288 5.8488 6.60534 5.86181C6.5978 5.87481 6.5938 5.88957 6.59375 5.9046V5.9046Z" fill="#2D3748"/>
</g>
<defs>
<clipPath id="clip0_2611_5311">
<rect width="11" height="11" fill="white" transform="translate(0.75 -0.00280762)"/>
</clipPath>
</defs>
</svg>
