<svg width="13" height="13" viewBox="0 0 13 13" fill="none" xmlns="http://www.w3.org/2000/svg">
<g clip-path="url(#clip0_2611_5242)">
<path d="M12.1247 3.06662C11.7027 3.24999 11.2562 3.37079 10.7994 3.42522C11.2795 3.14406 11.6406 2.69738 11.8149 2.16897C11.3609 2.43442 10.8651 2.62067 10.3487 2.71975C10.1312 2.49183 9.86963 2.31051 9.57989 2.18681C9.29016 2.06312 8.9783 1.99964 8.66327 2.00022C7.3878 2.00022 6.35561 3.0174 6.35561 4.27131C6.35471 4.44572 6.37469 4.61962 6.41514 4.78928C5.50054 4.7464 4.60496 4.51309 3.78569 4.10426C2.96642 3.69543 2.24151 3.1201 1.65733 2.41506C1.45239 2.76056 1.34401 3.15476 1.34351 3.55647C1.34351 4.34397 1.75436 5.04006 2.37476 5.44787C2.00719 5.43915 1.64716 5.34186 1.32522 5.16428V5.1924C1.32522 6.29396 2.1221 7.21037 3.17679 7.41896C2.97845 7.47183 2.77408 7.49862 2.56882 7.49865C2.42317 7.4989 2.27786 7.48477 2.13499 7.45646C2.42819 8.35881 3.28155 9.01506 4.29241 9.03381C3.47102 9.66683 2.46256 10.009 1.42554 10.0065C1.24146 10.0062 1.05756 9.99523 0.874756 9.97365C1.92972 10.6473 3.15603 11.0036 4.40772 11.0002C8.65835 11.0002 10.9805 7.53849 10.9805 4.53615C10.9805 4.43772 10.978 4.33928 10.9733 4.24318C11.424 3.92257 11.8139 3.52415 12.1247 3.06662Z" fill="#3182CE"/>
</g>
<defs>
<clipPath id="clip0_2611_5242">
<rect width="12" height="12" fill="white" transform="translate(0.499756 0.5)"/>
</clipPath>
</defs>
</svg>
