<svg width="21" height="20" viewBox="0 0 21 20" fill="none" xmlns="http://www.w3.org/2000/svg">
<g clip-path="url(#clip0_2611_6038)">
<path d="M10.5003 6.66671C11.417 6.66671 12.167 5.91671 12.167 5.00004C12.167 4.08337 11.417 3.33337 10.5003 3.33337C9.58368 3.33337 8.83368 4.08337 8.83368 5.00004C8.83368 5.91671 9.58368 6.66671 10.5003 6.66671ZM10.5003 8.33337C9.58368 8.33337 8.83368 9.08337 8.83368 10C8.83368 10.9167 9.58368 11.6667 10.5003 11.6667C11.417 11.6667 12.167 10.9167 12.167 10C12.167 9.08337 11.417 8.33337 10.5003 8.33337ZM10.5003 13.3334C9.58368 13.3334 8.83368 14.0834 8.83368 15C8.83368 15.9167 9.58368 16.6667 10.5003 16.6667C11.417 16.6667 12.167 15.9167 12.167 15C12.167 14.0834 11.417 13.3334 10.5003 13.3334Z" fill="#A0AEC0"/>
</g>
<defs>
<clipPath id="clip0_2611_6038">
<rect width="20" height="20" fill="white" transform="translate(0.500366 4.57764e-05)"/>
</clipPath>
</defs>
</svg>
